# xmcd
# 
# Track frame offsets:
#     150
#     14739
#     27197
#     44358
#     84358
#     97699
#     109030
#     123086
#     135841
#     148396
#     157568
#     169964
# 
# Disc length: 2404
# 
# Revision: 0
# Processed by: cddbd v1.5.2PL0 Copyright (c) Steve Scherf et al.
# Submitted via: fre:ac v1.0.27
# 
DISCID=8a09620c
DTITLE=Johnny Paycheck - Classic Years- cd 2 of 2
DYEAR=2017
DGENRE=Country
TTITLE0=Green Green Grass Of Home
TTITLE1=She's All I Got
TTITLE2=Memory Of A Memory
TTITLE3=Danny Boy
TTITLE4=Slide Off Your Satin Sheets
TTITLE5=Release Me
TTITLE6=The Only Hell My Momma Ever Raised
TTITLE7=Heaven's Almost As Big As Texas
TTITLE8=Close All The Honky Tonks
TTITLE9=Mr. Love Maker
TTITLE10=All The Time
TTITLE11=Jukebox Charlie
EXTD=
EXTT0=
EXTT1=
EXTT2=
EXTT3=
EXTT4=
EXTT5=
EXTT6=
EXTT7=
EXTT8=
EXTT9=
EXTT10=
EXTT11=
PLAYORDER=
